# xmcd
#
# Track frame offsets:
# 150
# 16643
# 31798
# 45942
# 65156
# 77799
# 90468
# 104551
# 119412
# 138090
# 153764
# 165345
# 176662
# 191225
# 203827
#
# Disc length: 2904 seconds
#
#
# Revision: 0
# Processed by: cddbd v1.5.2PL0 Copyright (c) Steve Scherf et al.
# Submitted via: FreeRIP 2.945 
#
DISCID=b60b560f
DTITLE=Pista Sertaneja - Remixes
DYEAR=2011
DGENRE=Sertanejo Remix
TTITLE0=Amo noite e dia (Jorge and Mateus)
TTITLE1=Meteoro (Luan Santana)
TTITLE2=Paga pau (Fernando and Sorocaba)
TTITLE3=Inventor dos amores (Gusttavo Lima)
TTITLE4=Fugidinha (Michel Teló)
TTITLE5=Tchau, Tchau (Maria Cecilia e Rodoufo)
TTITLE6=Quatro estações (Hugo Pena and Gabriel)
TTITLE7=Sonho Bom (Munhoz and Mariano)
TTITLE8=Qhe se dane o mundo (Adair Cardozo)
TTITLE9=Chora (João Neto and Frederico)
TTITLE10=Tô vendendo beijo (Humberto and Ronaldo)
TTITLE11=Baladeira (Jeann and Julio)
TTITLE12=Usou e abusou (Edson and Alana)
TTITLE13=Top do verão (Henrique and Diego)
TTITLE14=Cachaceiro (Tato and Ed Reis)
EXTD=
EXTT0=
EXTT1=
EXTT2=
EXTT3=
EXTT4=
EXTT5=
EXTT6=
EXTT7=
EXTT8=
EXTT9=
EXTT10=
EXTT11=
EXTT12=
EXTT13=
EXTT14=
PLAYORDER=
